<svg width="26" height="28" viewBox="0 0 26 28" fill="none" xmlns="http://www.w3.org/2000/svg">
  <g clip-path="url(#clip0)">
    <path d="M5.52086 8.76191V6.26723C5.52086 4.61315 6.17794 3.02682 7.34755 1.85721C8.51716 0.687598 10.1035 0.0305176 11.7576 0.0305176C13.4117 0.0305176 14.998 0.687598 16.1676 1.85721C17.3372 3.02682 17.9943 4.61315 17.9943 6.26723V8.76191H21.7363C22.0671 8.76191 22.3844 8.89333 22.6183 9.12725C22.8522 9.36117 22.9837 9.67844 22.9837 10.0093V24.9774C22.9837 25.3082 22.8522 25.6254 22.6183 25.8594C22.3844 26.0933 22.0671 26.2247 21.7363 26.2247H1.77884C1.44802 26.2247 1.13075 26.0933 0.896832 25.8594C0.66291 25.6254 0.531494 25.3082 0.531494 24.9774V10.0093C0.531494 9.67844 0.66291 9.36117 0.896832 9.12725C1.13075 8.89333 1.44802 8.76191 1.77884 8.76191H5.52086ZM5.52086 11.2566H3.02618V23.73H20.489V11.2566H17.9943V13.7513H15.4996V11.2566H8.01555V13.7513H5.52086V11.2566ZM8.01555 8.76191H15.4996V6.26723C15.4996 5.27478 15.1054 4.32298 14.4036 3.62122C13.7018 2.91945 12.75 2.5252 11.7576 2.5252C10.7651 2.5252 9.81333 2.91945 9.11156 3.62122C8.4098 4.32298 8.01555 5.27478 8.01555 6.26723V8.76191Z" fill="#090909"/>
    <ellipse cx="21.7363" cy="23.7301" rx="3.74203" ry="3.74203" fill="#54BF29"/>
  </g>
  <defs>
    <clipPath id="clip0">
      <rect width="24.9468" height="27.4415" fill="white" transform="translate(0.531494 0.0305176)"/>
    </clipPath>
  </defs>
</svg>
