<svg width="275" height="39" viewBox="0 0 275 39" fill="none" xmlns="http://www.w3.org/2000/svg">
  <path d="M68.1915 32.3479H55.4447L53.2546 38.5384H48.042L58.949 8.19598H64.731L75.638 38.5384H70.3816L68.1915 32.3479ZM66.7898 28.2935L61.84 14.2122L56.8464 28.2935H66.7898Z" fill="#333333"/>
  <path d="M89.1411 38.9308C87.2429 38.9308 85.5346 38.5965 84.0161 37.9281C82.5268 37.2305 81.3441 36.3005 80.468 35.138C79.592 33.9464 79.1247 32.624 79.0663 31.1708H84.2351C84.3227 32.188 84.8046 33.0454 85.6806 33.7429C86.5859 34.4114 87.7102 34.7456 89.0535 34.7456C90.4552 34.7456 91.5357 34.484 92.2949 33.9609C93.0834 33.4087 93.4776 32.7112 93.4776 31.8683C93.4776 30.9673 93.0396 30.2989 92.1635 29.8629C91.3166 29.427 89.9587 28.9474 88.0898 28.4243C86.2793 27.9302 84.8046 27.4506 83.6657 26.9856C82.5268 26.5206 81.5339 25.8085 80.687 24.8494C79.8694 23.8903 79.4606 22.6261 79.4606 21.0566C79.4606 19.7778 79.8402 18.6153 80.5994 17.569C81.3587 16.4936 82.4392 15.6508 83.8409 15.0405C85.2718 14.4301 86.9071 14.125 88.7468 14.125C91.4918 14.125 93.6966 14.8225 95.3611 16.2175C97.0549 17.5835 97.9601 19.4581 98.0769 21.8414H93.0834C92.9958 20.766 92.5577 19.9086 91.7693 19.2692C90.9808 18.6298 89.9149 18.3101 88.5716 18.3101C87.2575 18.3101 86.2501 18.5572 85.5492 19.0512C84.8484 19.5453 84.4979 20.1993 84.4979 21.013C84.4979 21.6524 84.7315 22.1901 85.1988 22.6261C85.666 23.062 86.2355 23.4108 86.9071 23.6724C87.5788 23.9049 88.5716 24.21 89.8857 24.5879C91.6379 25.0529 93.0688 25.5324 94.1784 26.0265C95.3173 26.4915 96.2956 27.1891 97.1133 28.1191C97.9309 29.0491 98.3544 30.2843 98.3836 31.8247C98.3836 33.1907 98.0039 34.4114 97.2447 35.4867C96.4854 36.5621 95.4049 37.4049 94.0032 38.0153C92.6307 38.6256 91.01 38.9308 89.1411 38.9308Z" fill="#333333"/>
  <path d="M106.32 11.3349C105.415 11.3349 104.655 11.0297 104.042 10.4193C103.429 9.80901 103.122 9.05335 103.122 8.15238C103.122 7.2514 103.429 6.49575 104.042 5.88542C104.655 5.27508 105.415 4.96991 106.32 4.96991C107.196 4.96991 107.941 5.27508 108.554 5.88542C109.167 6.49575 109.474 7.2514 109.474 8.15238C109.474 9.05335 109.167 9.80901 108.554 10.4193C107.941 11.0297 107.196 11.3349 106.32 11.3349ZM108.773 14.5173V38.5384H103.779V14.5173H108.773Z" fill="#333333"/>
  <path d="M113.664 26.4189C113.664 24.0066 114.161 21.8704 115.154 20.0103C116.176 18.1503 117.548 16.7116 119.271 15.6944C121.023 14.6481 122.951 14.125 125.053 14.125C126.951 14.125 128.601 14.5028 130.003 15.2584C131.434 15.985 132.573 16.9005 133.42 18.005V14.5173H138.457V38.5384H133.42V34.9636C132.573 36.0971 131.419 37.0416 129.959 37.7973C128.499 38.5529 126.835 38.9308 124.966 38.9308C122.892 38.9308 120.994 38.4076 119.271 37.3613C117.548 36.286 116.176 34.8037 115.154 32.9146C114.161 30.9964 113.664 28.8312 113.664 26.4189ZM133.42 26.5061C133.42 24.8494 133.069 23.4108 132.368 22.1901C131.697 20.9694 130.806 20.0394 129.696 19.4C128.587 18.7606 127.389 18.4409 126.105 18.4409C124.82 18.4409 123.622 18.7606 122.513 19.4C121.403 20.0103 120.498 20.9259 119.797 22.1465C119.125 23.3381 118.789 24.7623 118.789 26.4189C118.789 28.0755 119.125 29.5287 119.797 30.7784C120.498 32.0282 121.403 32.9873 122.513 33.6557C123.652 34.2951 124.849 34.6148 126.105 34.6148C127.389 34.6148 128.587 34.2951 129.696 33.6557C130.806 33.0163 131.697 32.0863 132.368 30.8656C133.069 29.6159 133.42 28.1627 133.42 26.5061Z" fill="#333333"/>
  <path d="M157.193 14.125C159.091 14.125 160.785 14.5173 162.274 15.302C163.793 16.0867 164.976 17.2493 165.822 18.7897C166.669 20.33 167.093 22.1901 167.093 24.3699V38.5384H162.143V25.111C162.143 22.9603 161.603 21.3182 160.522 20.1847C159.442 19.0222 157.967 18.4409 156.098 18.4409C154.229 18.4409 152.74 19.0222 151.63 20.1847C150.55 21.3182 150.009 22.9603 150.009 25.111V38.5384H145.016V14.5173H150.009V17.2638C150.827 16.2757 151.864 15.5055 153.119 14.9533C154.404 14.4011 155.762 14.125 157.193 14.125Z" fill="#333333"/>
  <path d="M191.378 8.23956V12.2939H178.456V21.231H188.531V25.2854H178.456V38.5384H173.462V8.23956H191.378Z" fill="#333333"/>
  <path d="M206.475 38.9308C204.197 38.9308 202.138 38.4221 200.298 37.4049C198.459 36.3586 197.013 34.9055 195.962 33.0454C194.911 31.1563 194.385 28.9765 194.385 26.5061C194.385 24.0647 194.925 21.8995 196.006 20.0103C197.086 18.1212 198.561 16.668 200.43 15.6508C202.299 14.6336 204.387 14.125 206.694 14.125C209.001 14.125 211.089 14.6336 212.957 15.6508C214.826 16.668 216.301 18.1212 217.382 20.0103C218.462 21.8995 219.002 24.0647 219.002 26.5061C219.002 28.9474 218.447 31.1126 217.338 33.0018C216.228 34.8909 214.71 36.3586 212.782 37.4049C210.884 38.4221 208.782 38.9308 206.475 38.9308ZM206.475 34.6148C207.759 34.6148 208.957 34.3096 210.066 33.6993C211.205 33.089 212.125 32.1735 212.826 30.9528C213.527 29.7321 213.877 28.2499 213.877 26.5061C213.877 24.7622 213.541 23.2945 212.87 22.1029C212.198 20.8822 211.308 19.9668 210.198 19.3564C209.088 18.7461 207.891 18.4409 206.606 18.4409C205.321 18.4409 204.124 18.7461 203.014 19.3564C201.934 19.9668 201.072 20.8822 200.43 22.1029C199.787 23.2945 199.466 24.7622 199.466 26.5061C199.466 29.0927 200.123 31.0981 201.437 32.5222C202.781 33.9173 204.46 34.6148 206.475 34.6148Z" fill="#333333"/>
  <path d="M234.408 38.9308C232.13 38.9308 230.071 38.4221 228.231 37.4049C226.392 36.3586 224.946 34.9055 223.895 33.0454C222.844 31.1563 222.318 28.9765 222.318 26.5061C222.318 24.0647 222.858 21.8995 223.939 20.0103C225.019 18.1212 226.494 16.668 228.363 15.6508C230.232 14.6336 232.32 14.125 234.627 14.125C236.934 14.125 239.022 14.6336 240.891 15.6508C242.76 16.668 244.234 18.1212 245.315 20.0103C246.395 21.8995 246.935 24.0647 246.935 26.5061C246.935 28.9474 246.381 31.1126 245.271 33.0018C244.161 34.8909 242.643 36.3586 240.715 37.4049C238.817 38.4221 236.715 38.9308 234.408 38.9308ZM234.408 34.6148C235.693 34.6148 236.89 34.3096 238 33.6993C239.138 33.089 240.058 32.1735 240.759 30.9528C241.46 29.7321 241.81 28.2499 241.81 26.5061C241.81 24.7622 241.475 23.2945 240.803 22.1029C240.131 20.8822 239.241 19.9668 238.131 19.3564C237.021 18.7461 235.824 18.4409 234.539 18.4409C233.254 18.4409 232.057 18.7461 230.947 19.3564C229.867 19.9668 229.005 20.8822 228.363 22.1029C227.72 23.2945 227.399 24.7622 227.399 26.5061C227.399 29.0927 228.056 31.0981 229.37 32.5222C230.714 33.9173 232.393 34.6148 234.408 34.6148Z" fill="#333333"/>
  <path d="M250.207 26.4189C250.207 24.0066 250.704 21.8704 251.697 20.0103C252.719 18.1503 254.091 16.7116 255.814 15.6944C257.566 14.6481 259.508 14.125 261.64 14.125C263.217 14.125 264.765 14.4737 266.283 15.1713C267.831 15.8397 269.057 16.7407 269.963 17.8742V6.27778H275V38.5384H269.963V34.92C269.145 36.0825 268.006 37.0416 266.546 37.7973C265.115 38.5529 263.465 38.9308 261.596 38.9308C259.494 38.9308 257.566 38.4076 255.814 37.3613C254.091 36.286 252.719 34.8037 251.697 32.9146C250.704 30.9964 250.207 28.8312 250.207 26.4189ZM269.963 26.5061C269.963 24.8494 269.612 23.4108 268.911 22.1901C268.24 20.9694 267.349 20.0394 266.239 19.4C265.13 18.7606 263.932 18.4409 262.647 18.4409C261.363 18.4409 260.165 18.7606 259.056 19.4C257.946 20.0103 257.041 20.9259 256.34 22.1465C255.668 23.3381 255.332 24.7623 255.332 26.4189C255.332 28.0755 255.668 29.5287 256.34 30.7784C257.041 32.0282 257.946 32.9873 259.056 33.6557C260.194 34.2951 261.392 34.6148 262.647 34.6148C263.932 34.6148 265.13 34.2951 266.239 33.6557C267.349 33.0163 268.24 32.0863 268.911 30.8656C269.612 29.6159 269.963 28.1627 269.963 26.5061Z" fill="#333333"/>
  <circle cx="19.3887" cy="19.3887" r="19.3887" fill="#69C744"/>
  <path d="M26.6597 31.5066C26.6597 27.4911 19.3889 13.3297 19.3889 13.3297C19.3889 13.3297 12.1182 27.4911 12.1182 31.5066C12.1182 35.5221 15.3734 38.7773 19.3889 38.7773C23.4044 38.7773 26.6597 35.5221 26.6597 31.5066Z" fill="white"/>
</svg>
