<svg width="275" height="39" viewBox="0 0 275 39" fill="none" xmlns="http://www.w3.org/2000/svg">
  <path d="M68.1915 29.3779H55.4447L53.2546 35.5685H48.042L58.949 5.22607H64.731L75.638 35.5685H70.3816L68.1915 29.3779ZM66.7898 25.3236L61.84 11.2422L56.8464 25.3236H66.7898Z" fill="white"/>
  <path d="M89.1411 35.9609C87.2429 35.9609 85.5346 35.6266 84.0161 34.9582C82.5268 34.2606 81.3441 33.3306 80.468 32.1681C79.592 30.9764 79.1247 29.6541 79.0663 28.2009H84.2351C84.3227 29.2181 84.8046 30.0755 85.6806 30.773C86.5859 31.4415 87.7102 31.7757 89.0535 31.7757C90.4552 31.7757 91.5357 31.5141 92.2949 30.991C93.0834 30.4388 93.4776 29.7412 93.4776 28.8984C93.4776 27.9974 93.0396 27.329 92.1635 26.893C91.3166 26.457 89.9587 25.9775 88.0898 25.4543C86.2793 24.9603 84.8046 24.4807 83.6657 24.0157C82.5268 23.5507 81.5339 22.8386 80.687 21.8795C79.8694 20.9204 79.4606 19.6562 79.4606 18.0867C79.4606 16.8079 79.8402 15.6454 80.5994 14.5991C81.3587 13.5237 82.4392 12.6809 83.8409 12.0706C85.2718 11.4602 86.9071 11.155 88.7468 11.155C91.4918 11.155 93.6966 11.8526 95.3611 13.2476C97.0549 14.6136 97.9601 16.4882 98.0769 18.8714H93.0834C92.9958 17.7961 92.5577 16.9387 91.7693 16.2993C90.9808 15.6599 89.9149 15.3402 88.5716 15.3402C87.2575 15.3402 86.2501 15.5872 85.5492 16.0813C84.8484 16.5754 84.4979 17.2293 84.4979 18.0431C84.4979 18.6825 84.7315 19.2202 85.1988 19.6562C85.666 20.0921 86.2355 20.4409 86.9071 20.7024C87.5788 20.935 88.5716 21.2401 89.8857 21.618C91.6379 22.083 93.0688 22.5625 94.1784 23.0566C95.3173 23.5216 96.2956 24.2191 97.1133 25.1492C97.9309 26.0792 98.3544 27.3144 98.3836 28.8548C98.3836 30.2208 98.0039 31.4415 97.2447 32.5168C96.4854 33.5922 95.4049 34.435 94.0032 35.0453C92.6307 35.6557 91.01 35.9609 89.1411 35.9609Z" fill="white"/>
  <path d="M106.32 8.36494C105.415 8.36494 104.655 8.05977 104.042 7.44943C103.429 6.8391 103.122 6.08344 103.122 5.18247C103.122 4.28149 103.429 3.52585 104.042 2.91551C104.655 2.30517 105.415 2 106.32 2C107.196 2 107.941 2.30517 108.554 2.91551C109.167 3.52585 109.474 4.28149 109.474 5.18247C109.474 6.08344 109.167 6.8391 108.554 7.44943C107.941 8.05977 107.196 8.36494 106.32 8.36494ZM108.773 11.5474V35.5685H103.779V11.5474H108.773Z" fill="white"/>
  <path d="M113.664 23.449C113.664 21.0367 114.161 18.9005 115.154 17.0404C116.176 15.1804 117.548 13.7417 119.271 12.7245C121.023 11.6782 122.951 11.155 125.053 11.155C126.951 11.155 128.601 11.5329 130.003 12.2885C131.434 13.0151 132.573 13.9306 133.42 15.035V11.5474H138.457V35.5685H133.42V31.9937C132.573 33.1272 131.419 34.0717 129.959 34.8274C128.499 35.583 126.835 35.9609 124.966 35.9609C122.892 35.9609 120.994 35.4377 119.271 34.3914C117.548 33.3161 116.176 31.8338 115.154 29.9447C114.161 28.0265 113.664 25.8613 113.664 23.449ZM133.42 23.5361C133.42 21.8795 133.069 20.4409 132.368 19.2202C131.697 17.9995 130.806 17.0695 129.696 16.4301C128.587 15.7907 127.389 15.471 126.105 15.471C124.82 15.471 123.622 15.7907 122.513 16.4301C121.403 17.0404 120.498 17.9559 119.797 19.1766C119.125 20.3682 118.789 21.7923 118.789 23.449C118.789 25.1056 119.125 26.5588 119.797 27.8085C120.498 29.0582 121.403 30.0173 122.513 30.6858C123.652 31.3252 124.849 31.6449 126.105 31.6449C127.389 31.6449 128.587 31.3252 129.696 30.6858C130.806 30.0464 131.697 29.1164 132.368 27.8957C133.069 26.646 133.42 25.1928 133.42 23.5361Z" fill="white"/>
  <path d="M157.193 11.155C159.091 11.155 160.785 11.5474 162.274 12.3321C163.793 13.1168 164.976 14.2794 165.822 15.8198C166.669 17.3601 167.093 19.2202 167.093 21.4V35.5685H162.143V22.1411C162.143 19.9904 161.603 18.3483 160.522 17.2148C159.442 16.0523 157.967 15.471 156.098 15.471C154.229 15.471 152.74 16.0523 151.63 17.2148C150.55 18.3483 150.009 19.9904 150.009 22.1411V35.5685H145.016V11.5474H150.009V14.2939C150.827 13.3058 151.864 12.5356 153.119 11.9834C154.404 11.4312 155.762 11.155 157.193 11.155Z" fill="white"/>
  <path d="M191.378 5.26966V9.32403H178.456V18.2611H188.531V22.3155H178.456V35.5685H173.462V5.26966H191.378Z" fill="white"/>
  <path d="M206.475 35.9609C204.197 35.9609 202.138 35.4522 200.298 34.435C198.459 33.3887 197.013 31.9356 195.962 30.0755C194.911 28.1863 194.385 26.0066 194.385 23.5361C194.385 21.0948 194.925 18.9296 196.006 17.0404C197.086 15.1513 198.561 13.6981 200.43 12.6809C202.299 11.6637 204.387 11.155 206.694 11.155C209.001 11.155 211.089 11.6637 212.957 12.6809C214.826 13.6981 216.301 15.1513 217.382 17.0404C218.462 18.9296 219.002 21.0948 219.002 23.5361C219.002 25.9775 218.447 28.1427 217.338 30.0319C216.228 31.921 214.71 33.3887 212.782 34.435C210.884 35.4522 208.782 35.9609 206.475 35.9609ZM206.475 31.6449C207.759 31.6449 208.957 31.3397 210.066 30.7294C211.205 30.1191 212.125 29.2036 212.826 27.9829C213.527 26.7622 213.877 25.28 213.877 23.5361C213.877 21.7923 213.541 20.3246 212.87 19.133C212.198 17.9123 211.308 16.9968 210.198 16.3865C209.088 15.7762 207.891 15.471 206.606 15.471C205.321 15.471 204.124 15.7762 203.014 16.3865C201.934 16.9968 201.072 17.9123 200.43 19.133C199.787 20.3246 199.466 21.7923 199.466 23.5361C199.466 26.1228 200.123 28.1282 201.437 29.5523C202.781 30.9474 204.46 31.6449 206.475 31.6449Z" fill="white"/>
  <path d="M234.408 35.9609C232.13 35.9609 230.071 35.4522 228.231 34.435C226.392 33.3887 224.946 31.9356 223.895 30.0755C222.844 28.1863 222.318 26.0066 222.318 23.5361C222.318 21.0948 222.858 18.9296 223.939 17.0404C225.019 15.1513 226.494 13.6981 228.363 12.6809C230.232 11.6637 232.32 11.155 234.627 11.155C236.934 11.155 239.022 11.6637 240.891 12.6809C242.76 13.6981 244.234 15.1513 245.315 17.0404C246.395 18.9296 246.935 21.0948 246.935 23.5361C246.935 25.9775 246.381 28.1427 245.271 30.0319C244.161 31.921 242.643 33.3887 240.715 34.435C238.817 35.4522 236.715 35.9609 234.408 35.9609ZM234.408 31.6449C235.693 31.6449 236.89 31.3397 238 30.7294C239.138 30.1191 240.058 29.2036 240.759 27.9829C241.46 26.7622 241.81 25.28 241.81 23.5361C241.81 21.7923 241.475 20.3246 240.803 19.133C240.131 17.9123 239.241 16.9968 238.131 16.3865C237.021 15.7762 235.824 15.471 234.539 15.471C233.254 15.471 232.057 15.7762 230.947 16.3865C229.867 16.9968 229.005 17.9123 228.363 19.133C227.72 20.3246 227.399 21.7923 227.399 23.5361C227.399 26.1228 228.056 28.1282 229.37 29.5523C230.714 30.9474 232.393 31.6449 234.408 31.6449Z" fill="white"/>
  <path d="M250.207 23.449C250.207 21.0367 250.704 18.9005 251.697 17.0404C252.719 15.1804 254.091 13.7417 255.814 12.7245C257.566 11.6782 259.508 11.155 261.64 11.155C263.217 11.155 264.765 11.5038 266.283 12.2013C267.831 12.8698 269.057 13.7708 269.963 14.9043V3.30787H275V35.5685H269.963V31.9501C269.145 33.1126 268.006 34.0717 266.546 34.8274C265.115 35.583 263.465 35.9609 261.596 35.9609C259.494 35.9609 257.566 35.4377 255.814 34.3914C254.091 33.3161 252.719 31.8338 251.697 29.9447C250.704 28.0265 250.207 25.8613 250.207 23.449ZM269.963 23.5361C269.963 21.8795 269.612 20.4409 268.911 19.2202C268.24 17.9995 267.349 17.0695 266.239 16.4301C265.13 15.7907 263.932 15.471 262.647 15.471C261.363 15.471 260.165 15.7907 259.056 16.4301C257.946 17.0404 257.041 17.9559 256.34 19.1766C255.668 20.3682 255.332 21.7923 255.332 23.449C255.332 25.1056 255.668 26.5588 256.34 27.8085C257.041 29.0582 257.946 30.0173 259.056 30.6858C260.194 31.3252 261.392 31.6449 262.647 31.6449C263.932 31.6449 265.13 31.3252 266.239 30.6858C267.349 30.0464 268.24 29.1164 268.911 27.8957C269.612 26.646 269.963 25.1928 269.963 23.5361Z" fill="white"/>
  <circle cx="19.3887" cy="19.3887" r="19.3887" fill="white"/>
  <path d="M26.6594 31.5066C26.6594 27.4911 19.3887 13.3297 19.3887 13.3297C19.3887 13.3297 12.1179 27.4911 12.1179 31.5066C12.1179 35.5221 15.3731 38.7773 19.3887 38.7773C23.4042 38.7773 26.6594 35.5221 26.6594 31.5066Z" fill="#54BF29"/>
</svg>
